<svg xmlns="http://www.w3.org/2000/svg" xmlns:xlink="http://www.w3.org/1999/xlink" width="800" zoomAndPan="magnify" viewBox="0 0 600 449.999984" height="600" preserveAspectRatio="xMidYMid meet" version="1.0"><path fill="#1a1a1a" d="M 193.433594 383.945312 C 199.015625 377.519531 237.910156 324.070312 242.304688 327.960938 C 246.195312 331.511719 246.363281 340.136719 243.152344 348.765625 C 241.796875 352.316406 230.128906 372.953125 233.683594 374.644531 C 251.097656 358.914062 265.8125 339.460938 277.648438 319.164062 C 287.457031 302.421875 301.152344 280.09375 302.675781 260.136719 C 267.671875 263.179688 230.128906 250.328125 208.65625 215.144531 C 200.199219 201.277344 183.628906 172.691406 207.808594 138.019531 C 225.734375 112.480469 264.289062 102.160156 287.964844 120.429688 C 303.015625 131.929688 312.820312 150.535156 319.246094 169.816406 C 322.628906 179.796875 323.644531 192.144531 325.167969 202.460938 C 326.011719 208.042969 326.859375 213.792969 327.535156 219.375 C 327.871094 219.542969 339.371094 215.652344 340.046875 215.484375 C 370.992188 201.785156 393.820312 171.675781 407.6875 142.417969 C 420.710938 114.679688 427.136719 86.09375 418.847656 55.3125 C 416.820312 47.699219 404.644531 8.289062 411.746094 10.828125 C 430.6875 17.421875 438.296875 43.300781 441 61.90625 C 447.597656 105.714844 440.324219 145.292969 416.988281 183.515625 C 405.996094 201.445312 392.976562 216.160156 376.574219 229.183594 C 368.289062 235.78125 359.15625 241.363281 349.515625 246.097656 C 346.980469 247.28125 327.027344 253.710938 326.859375 255.0625 C 318.910156 294.640625 293.882812 344.199219 278.15625 363.140625 C 274.941406 367.03125 259.214844 383.269531 260.230469 384.453125 C 262.429688 387.328125 296.082031 385.296875 299.632812 392.742188 C 306.394531 407.457031 246.703125 422.171875 236.554688 425.214844 C 212.882812 432.488281 207.808594 431.472656 183.796875 437.222656 C 169.421875 440.777344 163.167969 441.789062 158.9375 439.421875 C 152.511719 436.039062 186.839844 391.386719 193.433594 383.945312 Z M 311.132812 224.785156 C 312.820312 224.785156 309.945312 195.695312 309.269531 191.972656 C 306.566406 178.441406 299.800781 165.25 292.699219 153.578125 C 280.523438 133.453125 246.195312 120.765625 226.410156 143.429688 C 215.925781 155.441406 212.882812 168.464844 214.402344 184.195312 C 216.265625 202.96875 227.257812 217.175781 242.8125 225.464844 C 265.304688 237.304688 287.792969 234.425781 311.132812 224.785156 C 310.960938 224.785156 309.777344 225.464844 311.132812 224.785156 Z M 311.132812 224.785156 " fill-opacity="1" fill-rule="nonzero"/></svg>