<svg xmlns="http://www.w3.org/2000/svg" xmlns:xlink="http://www.w3.org/1999/xlink" width="800" zoomAndPan="magnify" viewBox="0 0 600 449.999984" height="600" preserveAspectRatio="xMidYMid meet" version="1.0"><defs><clipPath id="2db4e319ef"><path d="M 70 115 L 553 115 L 553 351 L 70 351 Z M 70 115 " clip-rule="nonzero"/></clipPath><clipPath id="86232ec272"><path d="M 149.964844 8.414062 L 597.003906 272.070312 L 492.226562 449.722656 L 45.1875 186.066406 Z M 149.964844 8.414062 " clip-rule="nonzero"/></clipPath><clipPath id="519ee2c88d"><path d="M 596.925781 272.023438 L 149.882812 8.367188 L 45.105469 186.019531 L 492.148438 449.675781 Z M 596.925781 272.023438 " clip-rule="nonzero"/></clipPath><clipPath id="309e323174"><path d="M 596.925781 272.023438 L 149.882812 8.367188 L 45.105469 186.019531 L 492.148438 449.675781 Z M 596.925781 272.023438 " clip-rule="nonzero"/></clipPath></defs><g clip-path="url(#2db4e319ef)"><g clip-path="url(#86232ec272)"><g clip-path="url(#519ee2c88d)"><g clip-path="url(#309e323174)"><path fill="#000000" d="M 70.476562 143.09375 C 79.394531 154.054688 77.789062 169.050781 74.8125 183.558594 L 74.746094 183.867188 C 74.109375 187.617188 73.109375 190.96875 72.207031 194.710938 C 71.773438 196.574219 71.289062 198.457031 70.757812 200.3125 L 82.820312 208.007812 C 86.472656 204.707031 90.53125 202.082031 94.984375 200.160156 C 107.074219 195.171875 119.3125 198.742188 127.765625 208.800781 L 139.003906 199.015625 C 129.964844 188.375 116.511719 181.816406 102.660156 183.148438 C 113.570312 172.074219 128.050781 162.144531 142.804688 154.480469 C 147.269531 152.363281 151.835938 150.050781 156.261719 148.320312 L 156.558594 148.195312 C 160.902344 146.265625 165.796875 144.648438 170.421875 142.945312 C 175.148438 141.519531 180.035156 139.851562 184.679688 138.753906 L 190.3125 137.292969 C 200.34375 134.984375 211.699219 133.082031 221.894531 131.996094 L 233.195312 131.074219 L 244.523438 130.632812 L 255.871094 130.671875 L 267.210938 131.179688 C 279.292969 132.054688 292.667969 133.710938 304.492188 136.132812 C 315.457031 138.296875 327.074219 141.441406 337.683594 144.808594 C 344.660156 147.144531 354 150.652344 360.746094 153.449219 C 367.148438 156.21875 376.835938 160.804688 383.050781 164.0625 C 390.789062 168.117188 401.683594 174.789062 409.148438 179.511719 C 419.003906 186.148438 430.890625 194.453125 439.898438 201.992188 C 447.371094 208.027344 454.800781 214.617188 462.609375 222.136719 C 467.679688 227.109375 473.792969 233.351562 478.445312 238.664062 C 483.089844 243.730469 488.632812 250.5 492.789062 255.882812 L 499.832031 265.371094 C 501.28125 267.421875 506.640625 275.597656 508.132812 277.808594 C 515.429688 289.707031 521.742188 301.671875 527.097656 314.519531 L 529.867188 321.875 C 533.335938 330.820312 535.929688 341.0625 538.035156 350.578125 L 552.566406 347.230469 C 551.375 342.429688 550.214844 336.257812 548.703125 331.53125 C 547.109375 326.429688 545.804688 321.484375 543.71875 316.355469 L 540.933594 308.960938 C 539.894531 306.445312 538.804688 304.140625 537.734375 301.703125 C 535.945312 297.441406 532.984375 291.554688 530.757812 287.386719 C 527.683594 281.195312 524.085938 275.621094 520.675781 269.753906 C 518.855469 267.070312 513.605469 258.996094 511.796875 256.488281 C 511.796875 256.488281 504.90625 247.207031 504.90625 247.207031 C 502.421875 243.746094 497.59375 238.160156 494.90625 234.824219 C 491.890625 231.101562 487.492188 226.542969 484.308594 222.960938 C 481.09375 219.363281 476.386719 214.914062 473.007812 211.464844 C 464.898438 203.652344 457.164062 196.789062 449.363281 190.488281 C 439.707031 182.414062 427.613281 173.984375 417.148438 166.941406 C 409.171875 161.902344 398.152344 155.152344 389.925781 150.84375 C 383.363281 147.394531 373.183594 142.59375 366.40625 139.664062 C 359.34375 136.734375 349.484375 133.042969 342.164062 130.601562 C 331.199219 127.117188 318.949219 123.796875 307.785156 121.597656 C 295.058594 118.960938 280.988281 117.238281 268.003906 116.292969 L 256.050781 115.765625 L 244.082031 115.730469 L 232.125 116.203125 L 220.195312 117.183594 C 209.25 118.351562 197.417969 120.355469 186.691406 122.824219 L 181.128906 124.269531 C 175.8125 125.539062 170.964844 127.203125 165.875 128.742188 L 165.445312 128.882812 C 160.476562 130.714844 155.621094 132.308594 150.636719 134.503906 C 145.5625 136.507812 140.980469 138.835938 136.199219 141.101562 L 135.8125 141.300781 C 119.6875 149.671875 103.605469 160.765625 91.601562 173.113281 C 93.09375 158.734375 91.09375 144.179688 81.71875 133.3125 Z M 70.476562 143.09375 " fill-opacity="1" fill-rule="nonzero"/></g></g></g></g></svg>