<svg width="644" height="314" viewBox="0 0 644 314" fill="none" xmlns="http://www.w3.org/2000/svg">
<path d="M0.96875 36.7916C12.8594 51.4062 10.7187 71.401 6.75 90.7448L6.66146 91.1562C5.8125 96.1562 4.47917 100.625 3.27604 105.615C2.69792 108.099 2.05208 110.609 1.34375 113.083L17.4271 123.344C22.2969 118.943 27.7083 115.443 33.6458 112.88C49.7656 106.229 66.0833 110.99 77.3542 124.401L92.3385 111.354C80.2865 97.1666 62.349 88.4218 43.8802 90.1979C58.4271 75.4323 77.7344 62.1927 97.4063 51.9739C103.359 49.151 109.448 46.0677 115.349 43.7604L115.745 43.5937C121.536 41.0208 128.063 38.8645 134.229 36.5937C140.531 34.6927 147.047 32.4687 153.24 31.0052L160.75 29.0573C174.125 25.9791 189.266 23.4427 202.859 21.9948L217.927 20.7656L233.031 20.177L248.161 20.2291L263.281 20.9062C279.391 22.0729 297.224 24.2812 312.99 27.5104C327.609 30.3958 343.099 34.5885 357.245 39.0781C366.547 42.1927 379 46.8698 387.995 50.5989C396.531 54.2916 409.448 60.4062 417.734 64.75C428.052 70.1562 442.578 79.052 452.531 85.3489C465.672 94.1979 481.521 105.271 493.531 115.323C503.495 123.37 513.401 132.156 523.813 142.182C530.573 148.812 538.724 157.135 544.927 164.219C551.12 170.974 558.51 180 564.052 187.177L573.443 199.828C575.375 202.562 582.521 213.464 584.51 216.411C594.24 232.276 602.656 248.229 609.797 265.359L613.49 275.167C618.115 287.094 621.573 300.75 624.38 313.437L643.755 308.974C642.167 302.573 640.62 294.344 638.604 288.042C636.479 281.24 634.74 274.646 631.958 267.807L628.245 257.948C626.859 254.594 625.406 251.521 623.979 248.271C621.594 242.589 617.646 234.74 614.677 229.182C610.578 220.927 605.781 213.495 601.234 205.672C598.807 202.094 591.807 191.328 589.396 187.984L580.208 175.609C576.896 170.995 570.458 163.547 566.875 159.099C562.854 154.135 556.99 148.057 552.745 143.281C548.458 138.484 542.182 132.552 537.677 127.953C526.865 117.536 516.552 108.385 506.151 99.9843C493.276 89.2187 477.151 77.9791 463.198 68.5885C452.563 61.8698 437.87 52.8698 426.901 47.125C418.151 42.526 404.578 36.125 395.542 32.2187C386.125 28.3125 372.979 23.3906 363.219 20.1354C348.599 15.4895 332.266 11.0625 317.38 8.13017C300.411 4.61454 281.651 2.31767 264.339 1.05725L248.401 0.354126L232.443 0.307251L216.5 0.937459L200.594 2.24475C186 3.80204 170.224 6.47392 155.922 9.76558L148.505 11.6927C141.417 13.3854 134.953 15.6041 128.167 17.6562L127.594 17.8437C120.969 20.2864 114.495 22.4114 107.849 25.3385C101.083 28.0104 94.974 31.1145 88.599 34.1354L88.0833 34.401C66.5833 45.5625 45.1406 60.3541 29.1354 76.8177C31.125 57.6458 28.4583 38.2395 15.9583 23.75L0.96875 36.7916Z" fill="black"/>
</svg>
