<svg xmlns="http://www.w3.org/2000/svg" xmlns:xlink="http://www.w3.org/1999/xlink" width="800" zoomAndPan="magnify" viewBox="0 0 600 449.999984" height="600" preserveAspectRatio="xMidYMid meet" version="1.0"><path fill="#0e77f0" d="M 59.667969 192.078125 L 82.167969 192.078125 L 82.167969 199.578125 L 59.667969 199.578125 M 89.667969 192.078125 L 112.167969 192.078125 L 112.167969 199.578125 L 89.667969 199.578125 M 119.667969 192.078125 L 142.167969 192.078125 L 142.167969 199.578125 L 119.667969 199.578125 M 149.667969 192.078125 L 172.167969 192.078125 L 172.167969 199.578125 L 149.667969 199.578125 M 179.667969 192.078125 L 202.167969 192.078125 L 202.167969 199.578125 L 179.667969 199.578125 M 209.667969 192.078125 L 232.167969 192.078125 L 232.167969 199.578125 L 209.667969 199.578125 M 239.667969 192.078125 L 262.167969 192.078125 L 262.167969 199.578125 L 239.667969 199.578125 M 269.667969 192.078125 L 292.167969 192.078125 L 292.167969 199.578125 L 269.667969 199.578125 M 299.667969 192.078125 L 322.167969 192.078125 L 322.167969 199.578125 L 299.667969 199.578125 M 329.667969 192.078125 L 352.167969 192.078125 L 352.167969 199.578125 L 329.667969 199.578125 M 359.667969 192.078125 L 382.167969 192.078125 L 382.167969 199.578125 L 359.667969 199.578125 M 389.667969 192.078125 L 412.167969 192.078125 L 412.167969 199.578125 L 389.667969 199.578125 M 419.667969 192.078125 L 442.167969 192.078125 L 442.167969 199.578125 L 419.667969 199.578125 M 449.667969 192.078125 L 472.167969 192.078125 L 472.167969 199.578125 L 449.667969 199.578125 M 479.667969 192.078125 L 502.167969 192.078125 L 502.167969 199.578125 L 479.667969 199.578125 M 509.667969 192.078125 L 532.167969 192.078125 L 532.167969 199.578125 L 509.667969 199.578125 M 539.667969 192.078125 L 551.25 192.078125 L 551.25 199.578125 L 539.667969 199.578125 " fill-opacity="1" fill-rule="nonzero"/><path stroke-linecap="round" transform="matrix(0.75, 0, 0, 0.75, 59.666836, 192.078383)" fill="none" stroke-linejoin="round" d="M 635.444268 -10.000345 L 655.44427 4.999656 L 635.444268 19.999657 " stroke="#0e77f0" stroke-width="10" stroke-opacity="1" stroke-miterlimit="4"/></svg>