<svg xmlns="http://www.w3.org/2000/svg" xmlns:xlink="http://www.w3.org/1999/xlink" width="800" zoomAndPan="magnify" viewBox="0 0 600 449.999984" height="600" preserveAspectRatio="xMidYMid meet" version="1.0"><path fill="#0e77f0" d="M 555 176.585938 L 532.5 176.585938 L 532.5 169.085938 L 555 169.085938 M 525 176.585938 L 502.5 176.585938 L 502.5 169.085938 L 525 169.085938 M 495 176.585938 L 472.5 176.585938 L 472.5 169.085938 L 495 169.085938 M 465 176.585938 L 442.5 176.585938 L 442.5 169.085938 L 465 169.085938 M 435 176.585938 L 412.5 176.585938 L 412.5 169.085938 L 435 169.085938 M 405 176.585938 L 382.5 176.585938 L 382.5 169.085938 L 405 169.085938 M 375 176.585938 L 352.5 176.585938 L 352.5 169.085938 L 375 169.085938 M 345 176.585938 L 322.5 176.585938 L 322.5 169.085938 L 345 169.085938 M 315 176.585938 L 292.5 176.585938 L 292.5 169.085938 L 315 169.085938 M 285 176.585938 L 262.5 176.585938 L 262.5 169.085938 L 285 169.085938 M 255 176.585938 L 232.5 176.585938 L 232.5 169.085938 L 255 169.085938 M 225 176.585938 L 202.5 176.585938 L 202.5 169.085938 L 225 169.085938 M 195 176.585938 L 172.5 176.585938 L 172.5 169.085938 L 195 169.085938 M 165 176.585938 L 142.5 176.585938 L 142.5 169.085938 L 165 169.085938 M 135 176.585938 L 112.5 176.585938 L 112.5 169.085938 L 135 169.085938 M 105 176.585938 L 82.5 176.585938 L 82.5 169.085938 L 105 169.085938 M 75 176.585938 L 52.5 176.585938 L 52.5 169.085938 L 75 169.085938 " fill-opacity="1" fill-rule="nonzero"/><path stroke-linecap="round" transform="matrix(-0.75, 0, 0, -0.75, 554.999968, 176.584909)" fill="none" stroke-linejoin="round" d="M 655.000008 -10.001373 L 675.000009 4.998629 L 655.000008 19.99863 " stroke="#0e77f0" stroke-width="10" stroke-opacity="1" stroke-miterlimit="4"/></svg>